<?xml version="1.0" standalone="no"?>
<svg viewBox="0 0 200 200" xmlns="http://www.w3.org/2000/svg">
  <path fill="#2F0743" d="M44.9,-73.9C57.3,-70.7,65.6,-56.7,66.9,-42.6C68.2,-28.5,62.4,-14.2,64.2,1C65.9,16.3,75.3,32.6,73.9,46.5C72.5,60.5,60.4,72.1,46.3,76.9C32.2,81.8,16.1,79.9,2.5,75.6C-11.2,71.3,-22.3,64.6,-35.5,59.3C-48.7,53.9,-63.9,49.8,-69.9,40.1C-76,30.4,-72.9,15.2,-68.2,2.7C-63.6,-9.8,-57.4,-19.7,-51.6,-29.9C-45.8,-40,-40.5,-50.5,-32,-55.9C-23.5,-61.4,-11.7,-61.7,2.3,-65.7C16.3,-69.6,32.6,-77.1,44.9,-73.9Z" transform="translate(100 100)" />
</svg>
