<?xml version="1.0" standalone="no"?>
<svg viewBox="0 0 200 200" xmlns="http://www.w3.org/2000/svg">
  <path fill="#2F0743" d="M42.9,-67C50.7,-61.8,48.6,-41.5,51.1,-26.2C53.5,-10.9,60.6,-0.6,63,11.7C65.3,24,63,38.3,56.2,52C49.5,65.8,38.3,79,24.4,83C10.6,87,-5.9,81.7,-20.8,75.3C-35.7,69,-49,61.5,-61,51C-73,40.5,-83.6,27,-87.9,11.3C-92.3,-4.4,-90.4,-22.4,-79.2,-31.8C-68.1,-41.1,-47.7,-41.8,-33,-43.8C-18.2,-45.8,-9.1,-49,4.2,-55.6C17.6,-62.2,35.2,-72.2,42.9,-67Z" transform="translate(100 100)" />
</svg>
